<svg width="326" height="137" viewBox="0 0 326 137" fill="none" xmlns="http://www.w3.org/2000/svg">
<path fill-rule="evenodd" clip-rule="evenodd" d="M202.316 0.0773244C196.38 0.705851 191.018 3.99547 187.824 8.96825C186.697 10.7239 186.263 11.8602 186.166 13.3074C186.033 15.3137 186.824 16.8469 188.413 17.6591C189.465 18.1972 190.094 18.314 192.278 18.3766C193.385 18.4084 194.29 18.4572 194.29 18.4852C194.29 18.5132 194.045 19.3152 193.745 20.2674C192.94 22.8228 192.919 24.1097 193.659 25.5915C194.1 26.4743 194.604 26.996 195.445 27.4414C196.826 28.1722 198.65 28.2592 200.559 27.685C201.425 27.4245 201.419 27.4372 201.002 26.5902C200.797 26.1758 200.563 25.5438 200.48 25.1858C200.376 24.7355 200.284 24.5465 200.182 24.5723C198.226 25.0649 197.415 25.002 196.748 24.3063C196.462 24.0081 196.393 23.8389 196.352 23.3332C196.308 22.8006 196.39 22.4416 196.986 20.5636L197.67 18.4059H199.61H201.551L202.019 16.9143C202.276 16.094 202.507 15.3618 202.533 15.2871C202.568 15.1819 202.144 15.1515 200.642 15.1515H198.706L199.077 14.0396C199.282 13.428 199.66 12.2566 199.918 11.4361L200.387 9.94456H198.703H197.019L196.187 12.5554L195.354 15.1664L192.962 15.1318L190.571 15.0973L190.127 14.8006C189.272 14.2283 189.266 13.2461 190.105 11.477C190.652 10.3254 191.606 9.08986 192.973 7.76468C198.49 2.41569 207.007 1.69485 213.428 6.03357C218.408 9.39902 221.263 15.4004 220.712 21.3454C220.338 25.3767 218.713 28.8896 215.924 31.6946C214.56 33.0665 213.443 33.9045 211.873 34.7319C209.589 35.9364 207.432 36.5154 204.899 36.6041C202.4 36.6917 200.429 36.3519 198.102 35.4324C193.266 33.5216 189.293 28.8254 188.166 23.6872C188.044 23.1336 188 23.063 187.804 23.1098C187.682 23.1392 187.044 23.27 186.387 23.4006C185.73 23.5312 185.135 23.6736 185.066 23.7171C184.829 23.8651 185.47 26.1715 186.242 27.952C188.273 32.632 192.224 36.5143 196.874 38.4002C206.473 42.293 217.405 38.0435 221.939 28.6572C225.317 21.6633 224.327 13.2617 219.41 7.18041C217.059 4.27242 213.4 1.83512 209.801 0.7794C207.633 0.143171 204.483 -0.152217 202.316 0.0773244ZM203.419 18.7051C202.345 22.1029 202.294 22.3055 202.255 23.3762C202.208 24.6491 202.355 25.2723 202.906 26.148C204.358 28.4542 208.06 28.6819 210.875 26.6383L211.338 26.3023L211.744 26.756C212.242 27.3129 212.981 27.7032 213.92 27.9043C214.8 28.0927 216.154 28.1027 216.503 27.9233C216.759 27.7918 217.381 26.7474 217.778 25.7825L217.979 25.2943L216.735 25.2838C215.313 25.2719 214.732 25.1081 214.174 24.5613C213.981 24.372 213.775 24.0369 213.716 23.8167C213.595 23.3622 213.54 23.562 215.178 18.4523C215.734 16.7179 216.188 15.2656 216.188 15.2251C216.188 15.1846 215.444 15.1515 214.533 15.1515H212.878L212.554 16.155C212.376 16.7069 211.863 18.3139 211.416 19.7262C210.51 22.5838 210.182 23.1925 209.13 23.9727C207.782 24.9733 206.446 25.1359 205.736 24.3861C205.173 23.7928 205.202 23.6207 206.582 19.335C207.273 17.1911 207.862 15.3727 207.892 15.2942C207.935 15.18 207.607 15.1518 206.244 15.1524L204.542 15.1533L203.419 18.7051ZM0 32.9963V35.0032H3.97168H7.94337V46.7731V58.5431H10.1439H12.3444V46.7731V35.0032H16.3161H20.2878V32.9963V30.9895H10.1439H0V32.9963ZM97.7059 41.1051L97.7372 51.2208L98.0378 52.1971C98.9277 55.0874 100.885 57.0992 103.849 58.1697C105.287 58.6893 106.464 58.8757 108.309 58.876C113.515 58.8771 117.219 56.4297 118.528 52.1243L118.77 51.3292L118.803 41.1594L118.836 30.9895H116.632H114.427L114.426 40.4C114.424 48.1552 114.397 49.9397 114.27 50.5449C113.834 52.624 112.229 54.1604 109.952 54.679C107.062 55.3367 103.966 54.1629 102.81 51.972C102.177 50.7724 102.19 51.0175 102.19 40.5671V30.9895H99.9325H97.6746L97.7059 41.1051ZM146.142 31.3447C144.999 31.8092 144.591 32.429 144.591 33.7014C144.591 34.2836 144.65 34.6246 144.809 34.9569C145.376 36.139 146.971 36.5492 148.331 35.8622C149.259 35.3937 149.58 34.838 149.578 33.7023C149.577 32.655 149.282 32.0684 148.519 31.5918C148.081 31.318 147.866 31.2589 147.231 31.2375C146.812 31.2234 146.322 31.2717 146.142 31.3447ZM234.115 31.2818C232.434 31.4636 230.603 32.0006 229.155 32.736C226.674 33.9961 224.682 36.0284 223.484 38.5216C221.656 42.3281 221.615 47.5483 223.384 51.3623C224.858 54.5422 227.724 57.0569 231.071 58.1075C232.462 58.5439 233.206 58.6614 234.986 58.7252C238.705 58.8587 241.45 58.0159 244.022 55.9503C245.777 54.5411 247.227 52.1054 247.791 49.6207L247.859 49.3224H245.706C243.752 49.3224 243.548 49.3398 243.49 49.5122C243.456 49.6166 243.253 50.0682 243.041 50.5157C242.546 51.5591 241.059 53.1123 240.045 53.6466C237.897 54.7779 235.297 55.0457 233.008 54.3713C230.429 53.6114 228.627 52.0288 227.45 49.4905C226.775 48.0346 226.555 46.9472 226.552 45.0375C226.546 42.0382 227.315 39.8783 229.051 38.0187C230.552 36.4113 232.243 35.593 234.63 35.319C236.399 35.1157 238.729 35.5815 240.231 36.4388C241.129 36.9516 242.578 38.4784 243.062 39.4237L243.465 40.2102H245.552C247.214 40.2102 247.64 40.1809 247.64 40.0664C247.64 39.7911 247.131 38.4146 246.73 37.6067C245.591 35.3096 243.577 33.421 241.12 32.3447C239.069 31.4466 236.372 31.0374 234.115 31.2818ZM251.182 33.3218V35.1117H253.168H255.155L255.127 45.0103L255.1 54.909L252.98 54.9384L250.86 54.9678V56.7555V58.5431H257.301H263.741V56.7555V54.9678L261.621 54.9384L259.501 54.909L259.474 45.0103L259.446 35.1117H261.433H263.419V33.3218V31.5319H257.301H251.182V33.3218ZM268.679 45.044V58.5562L275.522 58.5175C282.172 58.4798 282.389 58.472 283.224 58.2407C286.928 57.2145 288.964 54.5299 288.966 50.6686C288.967 48.501 288.483 47.1966 287.196 45.9053C286.515 45.2218 285.289 44.4408 284.897 44.4408C284.65 44.4408 284.806 44.2653 285.331 43.9527C286.436 43.2944 287.388 41.911 287.667 40.5574C287.836 39.742 287.814 38.1752 287.622 37.1953C287.156 34.8308 285.504 32.9338 283.204 32.1257C281.632 31.5734 281.032 31.5319 274.622 31.5319H268.679V45.044ZM292.724 33.3218V35.1117H294.656H296.588V45.0375V54.9633H294.495H292.402V56.7532V58.5431H298.789H305.176V56.7532V54.9633H303.082H300.989V45.0375V35.1117H302.921H304.853V33.3218V31.5319H298.789H292.724V33.3218ZM310.113 45.0375V58.5431H318.057H326V56.5372V54.5313L320.284 54.5032L314.568 54.4751L314.541 43.0035L314.513 31.5319H312.313H310.113V45.0375ZM280.755 35.5704C281.953 35.9254 282.744 36.5692 283.192 37.5524C283.549 38.3373 283.549 40.0219 283.192 40.8068C282.674 41.9439 281.645 42.613 280.096 42.8186C279.627 42.881 277.87 42.9168 276.139 42.8993L273.026 42.8679L272.998 39.2346C272.982 37.2363 272.995 35.5347 273.026 35.4533C273.109 35.2355 279.977 35.3397 280.755 35.5704ZM19.2144 39.2934C19.1258 39.3124 18.8723 39.3577 18.6508 39.3943L18.2483 39.4607V40.9202V42.3797H18.7419C19.4578 42.3797 19.9148 42.6353 20.1184 43.1496C20.267 43.5247 20.2878 44.498 20.2878 51.0602V58.5431H22.3767H24.4657L24.4974 52.4954C24.5276 46.7646 24.5403 46.4205 24.741 45.9285C25.2181 44.7585 26.2463 43.798 27.448 43.3995C27.9312 43.2393 28.3696 43.1948 29.4119 43.1999C30.6071 43.2059 30.8398 43.2394 31.5414 43.5068C31.9746 43.6719 32.3421 43.7909 32.3577 43.7713C32.4857 43.6122 34.0277 40.6382 34.0277 40.5507C34.0277 40.3512 32.2834 39.5609 31.4514 39.3834C30.322 39.1426 28.5669 39.2335 27.462 39.5902C26.115 40.0251 24.8668 40.9773 24.4593 41.8812C24.3165 42.1979 24.1521 42.2538 24.1521 41.9855C24.1521 40.8532 22.9541 39.6697 21.4901 39.3558C20.9741 39.2452 19.6143 39.2079 19.2144 39.2934ZM42.0338 39.3463C41.0909 39.4965 39.9047 39.8457 39.1271 40.202C36.411 41.4465 34.3849 44.0363 33.774 47.0443C33.1174 50.2774 33.7707 53.7502 35.4598 56.0065C36.5102 57.4097 38.1888 58.421 40.0262 58.7578C41.1502 58.9637 43.0823 58.9103 44.0088 58.6475C45.7491 58.1541 47.2299 57.0549 48.0385 55.6562L48.4653 54.9179L48.5366 55.6429C48.6609 56.9053 49.2941 57.9487 50.2278 58.4302C50.8155 58.7331 51.8867 58.8965 52.754 58.8153C53.9869 58.6998 53.8862 58.8479 53.8854 57.1527L53.8848 55.6684L53.3415 55.6571C52.9819 55.6496 52.7011 55.573 52.5104 55.4304C51.8865 54.9638 51.9048 55.1773 51.8466 47.7494L51.7929 40.9153L50.9341 40.5694C49.8204 40.121 48.4368 39.7193 47.2589 39.5023C46.1475 39.2975 42.9413 39.2018 42.0338 39.3463ZM56.5696 39.2868C56.4811 39.31 56.1309 39.3599 55.7914 39.3977L55.1742 39.4664V40.908V42.3495L55.7362 42.4168C56.4105 42.4974 56.7932 42.7592 56.9662 43.2578C57.0603 43.5295 57.0958 45.5995 57.1003 51.0852L57.1064 58.5431H59.2532H61.4001L61.4014 52.7123C61.4023 48.1301 61.434 46.7624 61.5493 46.3249C62.1912 43.8889 64.4718 42.3072 66.7856 42.6933C67.2037 42.7631 67.8173 42.9497 68.1493 43.108C68.9928 43.5101 69.8873 44.4414 70.2115 45.2552L70.4705 45.9053L70.5007 52.2242L70.5309 58.5431H72.6744H74.8179V52.5303C74.8179 48.8095 74.7736 46.1959 74.7018 45.6736C74.1151 41.4112 71.2468 39.048 66.9282 39.269C64.2807 39.4044 62.2147 40.3845 61.3182 41.9304L61.0271 42.4323L60.9458 41.8616C60.6999 40.1345 59.7359 39.3545 57.7581 39.2821C57.1931 39.2614 56.6582 39.2636 56.5696 39.2868ZM83.7641 39.3943C81.9571 39.7257 80.6634 40.3643 79.5947 41.4526C78.7021 42.3613 78.3014 43.1304 78.1258 44.2718C77.7369 46.8005 78.912 48.5686 81.5805 49.4698C82.4342 49.7581 83.2336 49.9127 86.1002 50.3434C88.2654 50.6687 89.4763 51.0469 90.0005 51.5612C90.4414 51.9941 90.6427 52.6324 90.5382 53.267C90.3006 54.7094 89.1882 55.5292 87.055 55.8338C84.5876 56.1862 82.0878 55.0335 81.8335 53.4259L81.7677 53.0107H79.687H77.6063L77.6694 53.4717C78.0431 56.202 79.914 58.0835 82.8829 58.7147C84.1838 58.9913 86.1328 59.1075 87.3679 58.9821C90.7524 58.6383 92.8453 57.4751 93.8717 55.3671C94.2509 54.5884 94.2864 54.4354 94.3329 53.3761C94.4168 51.4722 94.0554 50.4129 92.9847 49.424C91.8782 48.4022 90.4786 47.931 87.055 47.4283C84.9943 47.1258 83.5759 46.8136 83.0769 46.5528C81.9507 45.9643 81.8297 44.3534 82.8438 43.4535C84.087 42.3504 86.6308 42.0698 88.6015 42.8181C89.4384 43.1359 90.1372 43.8287 90.2333 44.436L90.3027 44.8748H92.1814H94.06L93.9894 44.3052C93.6685 41.714 91.6844 39.979 88.3748 39.3957C87.2572 39.1988 84.8345 39.1981 83.7641 39.3943ZM123.122 39.2868C123.034 39.31 122.683 39.3599 122.344 39.3977L121.727 39.4664V40.908V42.3495L122.277 42.4154C122.58 42.4517 122.946 42.5598 123.091 42.6559C123.664 43.0351 123.659 42.9645 123.659 51.0546V58.5431H125.806H127.953V52.7622C127.953 47.9214 127.979 46.8777 128.117 46.3438C128.755 43.8688 131 42.3041 133.351 42.6951C135.406 43.0367 136.791 44.4338 137.073 46.4477C137.133 46.8695 137.181 49.7271 137.182 52.8751L137.184 58.5431H139.283H141.381L141.345 52.0072C141.31 45.6531 141.303 45.4473 141.071 44.6036C140.561 42.7411 139.645 41.3415 138.379 40.4906C136.961 39.5385 135.371 39.1492 133.381 39.2677C130.802 39.4212 128.754 40.411 127.869 41.9313L127.577 42.434L127.545 42.1085C127.362 40.241 126.35 39.3568 124.311 39.2821C123.746 39.2614 123.211 39.2636 123.122 39.2868ZM160.263 39.3612C158.053 39.6796 155.732 40.9542 154.398 42.5819C153.727 43.4007 152.828 45.1569 152.586 46.1223C152.192 47.6968 152.195 50.2353 152.592 51.9018C152.688 52.3028 152.978 53.0703 153.238 53.6073C155.016 57.2898 158.661 59.2058 163.215 58.8524C165.824 58.6497 168.361 57.3794 169.896 55.5065C170.602 54.6452 171.457 52.9333 171.765 51.7632C172.1 50.4932 172.105 47.6094 171.776 46.2745C170.825 42.4245 167.936 39.9628 163.644 39.3461C162.741 39.2164 161.22 39.2232 160.263 39.3612ZM174.861 39.2868C174.773 39.31 174.423 39.3599 174.083 39.3977L173.466 39.4664V40.908V42.3495L174.028 42.4168C174.636 42.4895 175.053 42.7371 175.262 43.1495C175.364 43.349 175.395 45.1874 175.396 50.9767L175.398 58.5431H177.545H179.692V52.7822C179.692 46.5657 179.709 46.3431 180.281 45.203C180.913 43.943 182.261 42.9609 183.739 42.6847C185.513 42.3533 187.572 43.3707 188.385 44.9793C188.86 45.9202 188.919 46.6051 188.921 51.1213C188.923 53.8155 188.967 55.5819 189.044 55.9671C189.208 56.7952 189.76 57.7644 190.309 58.1896C191.05 58.764 191.725 58.9031 193.477 58.842C194.308 58.8131 195.073 58.7532 195.176 58.7088C195.341 58.6383 195.364 58.4613 195.364 57.284V55.9396L194.747 55.938C194.038 55.9361 193.707 55.7956 193.388 55.3624C193.17 55.0655 193.162 54.9106 193.102 50.2096C193.045 45.7295 193.023 45.3002 192.814 44.5346C192.338 42.7896 191.445 41.4256 190.198 40.541C188.818 39.5616 187.264 39.1644 185.22 39.269C182.583 39.4038 180.503 40.3907 179.609 41.9313L179.317 42.434L179.241 41.8147C179.198 41.4739 179.067 41.0033 178.949 40.7686C178.68 40.2373 178.001 39.6396 177.467 39.4646C177.068 39.3338 175.175 39.2046 174.861 39.2868ZM145.02 49.0512V58.5431H147.113H149.206V49.0512V39.5593H147.113H145.02V49.0512ZM46.0053 42.8581C46.4235 42.9472 47.0031 43.1143 47.2934 43.2295L47.8212 43.4389L47.8541 45.9196C47.9146 50.4839 47.5136 52.3249 46.1274 53.8445C44.573 55.5487 41.1755 55.5814 39.3884 53.9093C38.2652 52.8585 37.7344 51.3863 37.7542 49.3766C37.7884 45.87 39.7606 43.2632 42.8043 42.7014C43.473 42.578 45.0529 42.6554 46.0053 42.8581ZM163.723 43.1999C164.676 43.4332 165.404 43.8635 166.17 44.6459C167.014 45.5085 167.473 46.4045 167.73 47.6902C168.511 51.6093 165.872 55.1802 162.195 55.1802C160.236 55.1802 158.29 54.1017 157.317 52.4759C156.708 51.4583 156.457 50.4405 156.458 48.9969C156.461 47.135 156.888 45.9131 157.925 44.8054C159.406 43.2233 161.476 42.6498 163.723 43.1999ZM281.345 46.6179C282.278 46.771 282.914 47.0697 283.474 47.619C285.314 49.4212 284.91 52.7308 282.689 54.0457C281.803 54.5707 281.18 54.6345 276.918 54.6362L272.973 54.6378V50.5699V46.5019L276.81 46.5028C278.982 46.5032 280.95 46.5532 281.345 46.6179ZM199.017 53.9939C198.532 54.1989 198.048 54.6449 197.811 55.1052C197.461 55.7815 197.473 57.0119 197.835 57.6705C198.743 59.3212 201.323 59.3212 202.231 57.6705C202.448 57.2764 202.497 57.0369 202.497 56.3735C202.497 55.3795 202.206 54.7642 201.5 54.2629C201.085 53.9684 200.94 53.93 200.158 53.9071C199.676 53.8931 199.162 53.9321 199.017 53.9939ZM200.869 54.3501C201.425 54.5857 201.992 55.301 202.077 55.8769C202.2 56.7058 202.053 57.3107 201.609 57.8088C201.139 58.3345 200.695 58.5431 200.044 58.5431C199.166 58.5431 198.521 58.12 198.144 57.2956C197.655 56.2288 198.149 54.8202 199.175 54.3576C199.593 54.1688 200.431 54.165 200.869 54.3501ZM199.228 56.3735C199.228 57.3396 199.258 57.5668 199.383 57.5668C199.484 57.5668 199.549 57.4261 199.571 57.16C199.599 56.8166 199.646 56.7487 199.872 56.725C200.079 56.7032 200.21 56.7961 200.443 57.1318C200.626 57.395 200.83 57.5668 200.962 57.5668C201.161 57.5668 201.152 57.5331 200.857 57.1568L200.536 56.7469L200.794 56.5142C201.117 56.2237 201.138 55.6997 200.838 55.3972C200.668 55.2247 200.481 55.1802 199.926 55.1802H199.228V56.3735ZM200.602 55.6358C200.947 55.9842 200.487 56.53 199.906 56.4628C199.634 56.4312 199.601 56.3821 199.571 55.9667L199.538 55.5057H200.006C200.263 55.5057 200.531 55.5643 200.602 55.6358Z" fill="#00A6CA"/>
<path fill-rule="evenodd" clip-rule="evenodd" d="M121.154 101.685C115.35 105.75 110.629 109.187 110.662 109.323C110.716 109.545 116.744 118.24 117.169 118.71C117.314 118.871 138.29 104.489 138.571 104.035C138.668 103.878 132.002 94.2469 131.816 94.2759C131.755 94.2855 126.957 97.6196 121.154 101.685ZM146.527 105.657C143.679 106.544 142.343 109.502 143.661 112C144.331 113.269 145.372 113.837 148.535 114.656C150.581 115.186 151.141 115.423 151.642 115.971C152.338 116.732 152.386 117.062 151.93 117.943C151.502 118.768 150.34 119.291 148.936 119.291C147.397 119.291 146.353 118.817 145.788 117.862C145.337 117.1 145.282 117.075 143.988 117.075H142.653L142.801 117.685C143.492 120.525 146.55 122.119 150.185 121.535C153.261 121.041 154.919 119.345 154.918 116.695C154.918 114.325 153.649 113.205 149.845 112.215C148.459 111.855 147.08 111.4 146.78 111.204C145.59 110.426 145.683 109.088 146.994 108.121C147.464 107.774 147.944 107.66 148.903 107.665C150.354 107.673 151.194 108.098 151.775 109.116C152.113 109.71 152.242 109.76 153.419 109.762C154.904 109.763 154.943 109.675 154.145 108.089C153.244 106.299 151.424 105.347 148.921 105.356C148.127 105.359 147.049 105.494 146.527 105.657ZM177.843 105.752C175.743 106.475 174.689 107.89 174.689 109.985C174.689 112.539 175.832 113.6 179.581 114.528C182.631 115.283 183.437 115.774 183.534 116.938C183.652 118.364 182.425 119.291 180.42 119.291C178.978 119.29 177.842 118.759 177.245 117.804C176.829 117.139 176.716 117.092 175.522 117.084C174.083 117.074 174.009 117.192 174.589 118.575C175.558 120.89 178.469 122.067 181.828 121.502C184.775 121.006 186.33 119.363 186.332 116.743C186.333 114.218 185.219 113.187 181.498 112.271C177.97 111.403 177.13 110.796 177.483 109.371C177.768 108.22 179.201 107.464 180.77 107.636C182.061 107.777 182.776 108.201 183.243 109.1C183.565 109.722 183.667 109.763 184.889 109.763H186.193L185.956 108.833C185.254 106.071 181.287 104.565 177.843 105.752ZM168.247 108.101V109.542H167.358H166.47V110.539V111.536H167.358H168.247L168.248 115.247C168.248 118.337 168.313 119.089 168.636 119.734C169.162 120.785 170.235 121.285 171.968 121.285L173.356 121.285V120.221V119.157L172.531 119.134C171.058 119.092 170.891 118.642 170.962 114.883L171.024 111.647L172.19 111.58L173.356 111.513V110.527V109.542H172.134H170.913V108.101V106.661H169.58H168.247V108.101ZM158.128 109.877C156.958 110.47 156.366 111.116 156.128 112.061C155.983 112.636 155.998 112.644 157.159 112.644C158.138 112.644 158.444 112.542 158.967 112.042C159.498 111.535 159.79 111.441 160.838 111.441C161.919 111.441 162.148 111.52 162.609 112.055C163.184 112.721 163.355 114.189 162.86 114.203C160.715 114.264 158.183 114.664 157.392 115.066C154.335 116.622 155.29 120.882 158.815 121.409C160.053 121.594 161.518 121.162 162.302 120.381C162.658 120.025 162.992 119.734 163.044 119.734C163.096 119.734 163.138 120.083 163.138 120.51V121.285H164.471H165.804L165.794 117.352C165.783 113.034 165.626 111.784 164.983 110.903C163.799 109.279 160.33 108.761 158.128 109.877ZM204.038 109.699C203.626 109.902 203.101 110.373 202.873 110.746L202.458 111.425L202.457 110.483L202.456 109.542H201.124H199.791V115.413V121.285H201.11H202.428L202.498 117.279L202.567 113.273L203.397 112.515C204.15 111.828 204.352 111.757 205.563 111.757H206.899V110.539V109.32L205.844 109.325C205.264 109.328 204.451 109.496 204.038 109.699ZM210.048 109.572C208.903 109.901 207.434 111.511 207.025 112.885C206.253 115.478 206.762 118.49 208.218 119.941C210.424 122.142 214.685 121.96 216.652 119.579C217.688 118.325 217.588 117.962 216.205 117.962C215.277 117.962 214.996 118.057 214.657 118.487C213.839 119.524 211.458 119.645 210.415 118.702C209.804 118.151 209.343 117.217 209.343 116.532V115.967H213.484H217.626L217.498 114.436C217.217 111.103 215.365 109.312 212.231 109.345C211.436 109.353 210.454 109.455 210.048 109.572ZM187.607 114.029C187.684 118.031 187.742 118.611 188.152 119.402C188.976 120.992 190.573 121.707 192.619 121.401C193.423 121.28 193.865 121.044 194.532 120.378C195.01 119.902 195.438 119.513 195.485 119.513C195.532 119.513 195.57 119.912 195.57 120.399V121.285H196.792H198.014V115.413V109.542H196.681H195.348V113.43C195.348 117.78 195.203 118.357 193.987 118.86C192.367 119.529 190.864 118.98 190.473 117.576C190.346 117.118 190.241 115.123 190.24 113.142L190.239 109.542H188.88H187.522L187.607 114.029ZM214.03 112.121C214.378 112.469 214.729 113.079 214.808 113.475L214.952 114.195H212.147C209.057 114.195 209.002 114.165 209.687 112.844C210.526 111.226 212.761 110.853 214.03 112.121ZM163.138 116.643C163.138 118.228 161.958 119.291 160.199 119.291C158.915 119.291 158.251 118.808 158.251 117.873C158.251 116.566 159.185 116.146 162.416 116C163.08 115.97 163.138 116.022 163.138 116.643Z" fill="#116366"/>
<path fill-rule="evenodd" clip-rule="evenodd" d="M118.043 119.372C112.239 123.436 107.491 126.88 107.491 127.027C107.491 127.372 113.873 136.554 114.122 136.568C114.411 136.583 135.37 121.889 135.37 121.671C135.37 121.486 129.724 113.339 128.967 112.431C128.602 111.994 128.377 112.137 118.043 119.372Z" fill="#262261"/>
<line x1="4.37114e-08" y1="76.1541" x2="326" y2="76.1541" stroke="#00A6CA"/>
</svg>
